<svg width="139" height="34" viewBox="0 0 139 34" fill="none" xmlns="http://www.w3.org/2000/svg">
<path d="M0 14.6769C0 9.19744 4.44202 4.75542 9.92152 4.75542H18.8509C24.3304 4.75542 28.7724 9.19743 28.7724 14.6769V32.7341C28.7724 33.1725 28.417 33.5278 27.9787 33.5278H9.92152C4.44202 33.5278 0 29.0858 0 23.6063V14.6769Z" fill="url(#paint0_linear_312_4644)"/>
<path d="M2.77815 15.4713C2.77815 11.0877 6.33177 7.53413 10.7154 7.53413H17.8589C22.2425 7.53413 25.7961 11.0877 25.7961 15.4714V29.9171C25.7961 30.2678 25.5118 30.5521 25.1611 30.5521H10.7154C6.33176 30.5521 2.77815 26.9984 2.77815 22.6148V15.4713Z" fill="white"/>
<path d="M18.4852 22.5158C19.016 22.5158 19.4554 22.9499 19.3553 23.4711C19.2908 23.8064 19.1924 24.1352 19.0611 24.4522C18.8068 25.0661 18.4341 25.6239 17.9642 26.0938C17.4943 26.5637 16.9365 26.9364 16.3226 27.1907C15.7087 27.4449 15.0507 27.5758 14.3863 27.5758C13.7218 27.5758 13.0638 27.4449 12.4499 27.1907C11.836 26.9364 11.2782 26.5637 10.8083 26.0938C10.3385 25.6239 9.96574 25.0661 9.71145 24.4522C9.58014 24.1352 9.48174 23.8064 9.41727 23.4711C9.31707 22.9499 9.75654 22.5158 10.2873 22.5158C10.818 22.5158 11.2343 22.9559 11.3943 23.4619C11.4215 23.548 11.4525 23.633 11.4872 23.7167C11.6449 24.0974 11.876 24.4433 12.1674 24.7347C12.4588 25.0261 12.8047 25.2573 13.1854 25.415C13.5661 25.5727 13.9742 25.6538 14.3863 25.6538C14.7983 25.6538 15.2064 25.5727 15.5871 25.415C15.9678 25.2573 16.3138 25.0261 16.6051 24.7347C16.8965 24.4433 17.1277 24.0974 17.2854 23.7167C17.32 23.633 17.351 23.548 17.3782 23.4619C17.5382 22.9559 17.9545 22.5158 18.4852 22.5158Z" fill="#797979"/>
<path d="M54.6677 8.46349V11.3164H47.2637V32H43.9693V11.3164H36.5653V8.46349H54.6677ZM59.6775 29.7245C60.4247 29.7245 61.0814 29.7132 61.6474 29.6905C62.2361 29.6452 62.7229 29.5773 63.1078 29.4867V24.2224C62.8814 24.1092 62.5078 24.0187 61.987 23.9507C61.4889 23.8602 60.8776 23.8149 60.153 23.8149C59.6775 23.8149 59.1681 23.8488 58.6247 23.9168C58.1039 23.9847 57.6171 24.1319 57.1643 24.3583C56.7341 24.5621 56.3718 24.8564 56.0774 25.2413C55.7831 25.6036 55.6359 26.0904 55.6359 26.7018C55.6359 27.8339 55.9982 28.6263 56.7227 29.0792C57.4473 29.5094 58.4322 29.7245 59.6775 29.7245ZM59.4058 13.8976C60.6738 13.8976 61.738 14.0674 62.5984 14.4071C63.4814 14.7241 64.1833 15.1882 64.7041 15.7996C65.2475 16.3883 65.6324 17.1015 65.8589 17.9392C66.0853 18.7544 66.1985 19.66 66.1985 20.6563V31.6944C65.9268 31.7396 65.5419 31.8076 65.0437 31.8981C64.5683 31.9661 64.0248 32.034 63.4135 32.1019C62.8022 32.1698 62.1342 32.2265 61.4097 32.2717C60.7078 32.3397 60.0059 32.3736 59.3039 32.3736C58.3077 32.3736 57.3907 32.2717 56.5529 32.068C55.7152 31.8642 54.9906 31.5472 54.3793 31.117C53.7679 30.6641 53.2925 30.0754 52.9528 29.3509C52.6132 28.6263 52.4434 27.7546 52.4434 26.7357C52.4434 25.7621 52.6358 24.9244 53.0207 24.2224C53.4283 23.5205 53.9717 22.9545 54.651 22.5243C55.3302 22.0941 56.1227 21.7771 57.0284 21.5733C57.9341 21.3695 58.8851 21.2676 59.8813 21.2676C60.1983 21.2676 60.5266 21.2903 60.8663 21.3356C61.2059 21.3582 61.5229 21.4035 61.8172 21.4714C62.1342 21.5167 62.4059 21.562 62.6323 21.6073C62.8588 21.6526 63.0173 21.6865 63.1078 21.7092V20.8261C63.1078 20.3053 63.0512 19.7959 62.938 19.2978C62.8248 18.777 62.621 18.3242 62.3267 17.9392C62.0323 17.5317 61.6248 17.2147 61.104 16.9883C60.6059 16.7392 59.9493 16.6147 59.1341 16.6147C58.0926 16.6147 57.1756 16.6939 56.3831 16.8524C55.6133 16.9883 55.0359 17.1354 54.651 17.2939L54.2774 14.6788C54.6849 14.4976 55.3642 14.3278 56.3152 14.1693C57.2662 13.9882 58.2964 13.8976 59.4058 13.8976ZM82.7638 32C82.1298 30.3698 81.4506 28.5131 80.726 26.4301C80.0241 24.3243 79.3788 22.1394 78.7901 19.8751C78.2014 22.1394 77.5561 24.3243 76.8542 26.4301C76.1523 28.5131 75.4843 30.3698 74.8504 32H72.0993C71.0578 29.6679 70.0389 27.0074 69.0426 24.0187C68.0464 21.0299 67.1067 17.8034 66.2237 14.3391H69.62C69.8464 15.4033 70.1182 16.5581 70.4351 17.8034C70.7521 19.0487 71.0804 20.294 71.4201 21.5393C71.7823 22.7847 72.1559 23.9847 72.5409 25.1395C72.9258 26.2942 73.2881 27.3018 73.6277 28.1622C74.0126 27.098 74.3862 25.9772 74.7485 24.7998C75.1334 23.5998 75.4957 22.3997 75.8353 21.1997C76.1749 19.977 76.4919 18.7883 76.7863 17.6336C77.1033 16.4562 77.375 15.358 77.6014 14.3391H80.2166C80.4203 15.358 80.6694 16.4562 80.9638 17.6336C81.2581 18.7883 81.5751 19.977 81.9147 21.1997C82.2544 22.3997 82.6053 23.5998 82.9676 24.7998C83.3525 25.9772 83.7374 27.098 84.1223 28.1622C84.462 27.3018 84.8129 26.2942 85.1752 25.1395C85.5601 23.9847 85.9337 22.7847 86.296 21.5393C86.6583 20.294 86.9979 19.0487 87.3149 17.8034C87.6319 16.5581 87.9036 15.4033 88.13 14.3391H91.3905C90.5074 17.8034 89.5678 21.0299 88.5715 24.0187C87.5753 27.0074 86.5564 29.6679 85.5148 32H82.7638ZM98.3986 22.2865C99.0778 22.8073 99.7911 23.4526 100.538 24.2224C101.308 24.9923 102.055 25.83 102.78 26.7357C103.527 27.6188 104.229 28.5245 104.886 29.4528C105.542 30.3585 106.097 31.2076 106.55 32H102.848C102.372 31.2076 101.818 30.4038 101.184 29.5886C100.572 28.7509 99.9269 27.9584 99.2477 27.2112C98.5684 26.4414 97.8778 25.7395 97.1759 25.1055C96.474 24.4715 95.806 23.9394 95.1721 23.5092V32H92.0135V6.18795L95.1721 5.64454V21.7431C95.7155 21.1997 96.3155 20.5997 96.9721 19.9431C97.6287 19.2865 98.274 18.6185 98.908 17.9392C99.542 17.26 100.142 16.6147 100.708 16.0033C101.274 15.3694 101.761 14.8146 102.168 14.3391H105.87C105.35 14.9052 104.784 15.5278 104.172 16.2071C103.561 16.8864 102.927 17.577 102.27 18.2789C101.614 18.9581 100.946 19.6487 100.267 20.3506C99.6099 21.0299 98.9873 21.6752 98.3986 22.2865ZM105.16 23.2035C105.16 21.6412 105.387 20.2827 105.84 19.128C106.293 17.9506 106.893 16.9769 107.64 16.2071C108.387 15.4373 109.247 14.8599 110.221 14.475C111.195 14.0901 112.191 13.8976 113.21 13.8976C115.587 13.8976 117.41 14.6448 118.678 16.1392C119.946 17.6109 120.58 19.8638 120.58 22.8979C120.58 23.0337 120.58 23.2149 120.58 23.4413C120.58 23.6451 120.568 23.8375 120.546 24.0187H108.455C108.591 25.8527 109.123 27.2452 110.051 28.1961C110.979 29.1471 112.429 29.6226 114.398 29.6226C115.508 29.6226 116.436 29.532 117.183 29.3509C117.953 29.1471 118.531 28.9547 118.916 28.7735L119.357 31.4227C118.972 31.6264 118.293 31.8415 117.319 32.068C116.368 32.2944 115.281 32.4076 114.059 32.4076C112.519 32.4076 111.183 32.1812 110.051 31.7283C108.942 31.2528 108.025 30.6075 107.3 29.7924C106.576 28.9773 106.032 28.015 105.67 26.9055C105.33 25.7734 105.16 24.5394 105.16 23.2035ZM117.285 21.4714C117.308 20.045 116.946 18.8789 116.199 17.9732C115.474 17.0449 114.466 16.5807 113.176 16.5807C112.451 16.5807 111.806 16.7279 111.24 17.0222C110.696 17.2939 110.232 17.6562 109.847 18.1091C109.462 18.5619 109.157 19.0827 108.93 19.6714C108.727 20.2601 108.591 20.8601 108.523 21.4714H117.285ZM121.415 23.2035C121.415 21.6412 121.641 20.2827 122.094 19.128C122.547 17.9506 123.147 16.9769 123.894 16.2071C124.642 15.4373 125.502 14.8599 126.476 14.475C127.449 14.0901 128.445 13.8976 129.464 13.8976C131.842 13.8976 133.664 14.6448 134.932 16.1392C136.2 17.6109 136.834 19.8638 136.834 22.8979C136.834 23.0337 136.834 23.2149 136.834 23.4413C136.834 23.6451 136.823 23.8375 136.8 24.0187H124.709C124.845 25.8527 125.377 27.2452 126.306 28.1961C127.234 29.1471 128.683 29.6226 130.653 29.6226C131.763 29.6226 132.691 29.532 133.438 29.3509C134.208 29.1471 134.785 28.9547 135.17 28.7735L135.612 31.4227C135.227 31.6264 134.548 31.8415 133.574 32.068C132.623 32.2944 131.536 32.4076 130.313 32.4076C128.774 32.4076 127.438 32.1812 126.306 31.7283C125.196 31.2528 124.279 30.6075 123.555 29.7924C122.83 28.9773 122.287 28.015 121.924 26.9055C121.585 25.7734 121.415 24.5394 121.415 23.2035ZM133.54 21.4714C133.563 20.045 133.2 18.8789 132.453 17.9732C131.729 17.0449 130.721 16.5807 129.43 16.5807C128.706 16.5807 128.061 16.7279 127.494 17.0222C126.951 17.2939 126.487 17.6562 126.102 18.1091C125.717 18.5619 125.411 19.0827 125.185 19.6714C124.981 20.2601 124.845 20.8601 124.777 21.4714H133.54Z" fill="white"/>
<defs>
<linearGradient id="paint0_linear_312_4644" x1="8.52971" y1="29.4754" x2="28.4979" y2="13.3782" gradientUnits="userSpaceOnUse">
<stop stop-color="#F75AD7"/>
<stop offset="0.415" stop-color="#9D32FF"/>
<stop offset="0.692166" stop-color="#4F8FFF"/>
<stop offset="1" stop-color="#09E2FF"/>
</linearGradient>
</defs>
</svg>
